<svg version="1.1" viewBox="0.0 0.0 960.0 540.0" fill="none" stroke="none" stroke-linecap="square" stroke-miterlimit="10" xmlns:xlink="http://www.w3.org/1999/xlink" xmlns="http://www.w3.org/2000/svg"><clipPath id="g5b90775608_0_0.0"><path d="m0 0l960.0 0l0 540.0l-960.0 0l0 -540.0z" clip-rule="nonzero"/></clipPath><g clip-path="url(#g5b90775608_0_0.0)"><path fill="#ffffff" d="m0 0l960.0 0l0 540.0l-960.0 0z" fill-rule="evenodd"/><path fill="#ffe599" d="m68.2021 330.8702l0 0c0 -3.7892456 3.071785 -6.861023 6.861023 -6.861023l86.51416 0c1.8196564 0 3.5647888 0.7228699 4.851486 2.009552c1.2866974 1.2866821 2.009552 3.0318298 2.009552 4.851471l0 27.443298c0 3.7892456 -3.0717926 6.861023 -6.861038 6.861023l-86.51416 0c-3.789238 0 -6.861023 -3.0717773 -6.861023 -6.861023z" fill-rule="evenodd"/><path fill="#3d85c6" d="m171.38321 330.8702l0 0c0 -3.7892456 3.0717773 -6.861023 6.861023 -6.861023l86.51416 0c1.8196716 0 3.5647888 0.7228699 4.851471 2.009552c1.2867126 1.2866821 2.009552 3.0318298 2.009552 4.851471l0 27.443298c0 3.7892456 -3.0717773 6.861023 -6.861023 6.861023l-86.51416 0c-3.7892456 0 -6.861023 -3.0717773 -6.861023 -6.861023z" fill-rule="evenodd"/><path fill="#d5a6bd" d="m274.5643 330.8702l0 0c0 -3.7892456 3.0717773 -6.861023 6.861023 -6.861023l86.51416 0c1.8196716 0 3.5647888 0.7228699 4.8515015 2.009552c1.2866821 1.2866821 2.009552 3.0318298 2.009552 4.851471l0 27.443298c0 3.7892456 -3.0718079 6.861023 -6.8610535 6.861023l-86.51416 0c-3.7892456 0 -6.861023 -3.0717773 -6.861023 -6.861023z" fill-rule="evenodd"/><path fill="#0097a7" d="m377.7454 330.8702l0 0c0 -3.7892456 3.0718079 -6.861023 6.8610535 -6.861023l86.51416 0c1.8196411 0 3.5647888 0.7228699 4.851471 2.009552c1.2866821 1.2866821 2.009552 3.0318298 2.009552 4.851471l0 27.443298c0 3.7892456 -3.0717773 6.861023 -6.861023 6.861023l-86.51416 0c-3.7892456 0 -6.8610535 -3.0717773 -6.8610535 -6.861023z" fill-rule="evenodd"/><path fill="#ffe599" d="m688.1916 330.8702l0 0c0 -3.7892456 3.0717773 -6.861023 6.861023 -6.861023l86.49841 0c1.8197021 0 3.5648193 0.7228699 4.8515015 2.009552c1.2866821 1.2866821 2.0095215 3.0318298 2.0095215 4.851471l0 27.443298c0 3.7892456 -3.0717773 6.861023 -6.861023 6.861023l-86.49841 0c-3.7892456 0 -6.861023 -3.0717773 -6.861023 -6.861023z" fill-rule="evenodd"/><path fill="#3d85c6" d="m482.01575 330.8702l0 0c0 -3.7892456 3.0717773 -6.861023 6.861023 -6.861023l86.49841 0c1.8196411 0 3.5648193 0.7228699 4.8515015 2.009552c1.2866821 1.2866821 2.0095215 3.0318298 2.0095215 4.851471l0 27.443298c0 3.7892456 -3.0717773 6.861023 -6.861023 6.861023l-86.49841 0c-3.7892456 0 -6.861023 -3.0717773 -6.861023 -6.861023z" fill-rule="evenodd"/><path fill="#d5a6bd" d="m791.5748 330.8702l0 0c0 -3.7892456 3.0717773 -6.861023 6.861023 -6.861023l86.49841 0c1.8196411 0 3.5647583 0.7228699 4.8514404 2.009552c1.2867432 1.2866821 2.0095825 3.0318298 2.0095825 4.851471l0 27.443298c0 3.7892456 -3.0717773 6.861023 -6.861023 6.861023l-86.49841 0c-3.7892456 0 -6.861023 -3.0717773 -6.861023 -6.861023z" fill-rule="evenodd"/><path fill="#0097a7" d="m585.10236 330.8702l0 0c0 -3.7892456 3.0717773 -6.861023 6.861023 -6.861023l86.49841 0c1.8196411 0 3.5648193 0.7228699 4.8515015 2.009552c1.2866821 1.2866821 2.0095215 3.0318298 2.0095215 4.851471l0 27.443298c0 3.7892456 -3.0717773 6.861023 -6.861023 6.861023l-86.49841 0c-3.7892456 0 -6.861023 -3.0717773 -6.861023 -6.861023z" fill-rule="evenodd"/><path fill="#ffe599" d="m274.37796 181.68387l0 0c0 -3.7892456 3.0717773 -6.861038 6.861023 -6.861038l86.49841 0c1.8196716 0 3.5647888 0.7228546 4.851471 2.009552c1.2867126 1.2866974 2.009552 3.0318298 2.009552 4.851486l0 27.443298c0 3.7892303 -3.0717773 6.861023 -6.861023 6.861023l-86.49841 0c-3.7892456 0 -6.861023 -3.0717926 -6.861023 -6.861023z" fill-rule="evenodd"/><path fill="#3d85c6" d="m68.2021 181.68387l0 0c0 -3.7892456 3.071785 -6.861038 6.861023 -6.861038l86.49841 0c1.8196564 0 3.5647888 0.7228546 4.851486 2.009552c1.2866974 1.2866974 2.009552 3.0318298 2.009552 4.851486l0 27.443298c0 3.7892303 -3.0717926 6.861023 -6.861038 6.861023l-86.49841 0c-3.789238 0 -6.861023 -3.0717926 -6.861023 -6.861023z" fill-rule="evenodd"/><path fill="#d5a6bd" d="m377.76117 181.68387l0 0c0 -3.7892456 3.0717773 -6.861038 6.861023 -6.861038l86.49841 0c1.8196411 0 3.5647888 0.7228546 4.851471 2.009552c1.2866821 1.2866974 2.009552 3.0318298 2.009552 4.851486l0 27.443298c0 3.7892303 -3.0717773 6.861023 -6.861023 6.861023l-86.49841 0c-3.7892456 0 -6.861023 -3.0717926 -6.861023 -6.861023z" fill-rule="evenodd"/><path fill="#0097a7" d="m171.28871 181.68387l0 0c0 -3.7892456 3.0717926 -6.861038 6.861038 -6.861038l86.49841 0c1.8196411 0 3.5647888 0.7228546 4.851471 2.009552c1.2866821 1.2866974 2.009552 3.0318298 2.009552 4.851486l0 27.443298c0 3.7892303 -3.0717773 6.861023 -6.861023 6.861023l-86.49841 0c-3.7892456 0 -6.861038 -3.0717926 -6.861038 -6.861023z" fill-rule="evenodd"/><path fill="#ffe599" d="m891.7953 209.12717l0 0c0 3.7892303 -3.0717773 6.861023 -6.861023 6.861023l-86.51416 0c-1.8197021 0 -3.5648193 -0.7228546 -4.8515015 -2.009552c-1.2866821 -1.2866974 -2.0095215 -3.0318146 -2.0095215 -4.851471l0 -27.443298c0 -3.7892456 3.0717773 -6.861038 6.861023 -6.861038l86.51416 0c3.7892456 0 6.861023 3.0717926 6.861023 6.861038z" fill-rule="evenodd"/><path fill="#3d85c6" d="m788.6142 209.12717l0 0c0 3.7892303 -3.0718384 6.861023 -6.861023 6.861023l-86.51422 0c-1.8196411 0 -3.5647583 -0.7228546 -4.8514404 -2.009552c-1.2866821 -1.2866974 -2.0095825 -3.0318146 -2.0095825 -4.851471l0 -27.443298c0 -3.7892456 3.0718384 -6.861038 6.861023 -6.861038l86.51422 0c3.7891846 0 6.861023 3.0717926 6.861023 6.861038z" fill-rule="evenodd"/><path fill="#d5a6bd" d="m685.43304 209.12717l0 0c0 3.7892303 -3.0717773 6.861023 -6.861023 6.861023l-86.51416 0c-1.8196411 0 -3.5647583 -0.7228546 -4.8514404 -2.009552c-1.2867432 -1.2866974 -2.0095825 -3.0318146 -2.0095825 -4.851471l0 -27.443298c0 -3.7892456 3.0717773 -6.861038 6.861023 -6.861038l86.51416 0c3.7892456 0 6.861023 3.0717926 6.861023 6.861038z" fill-rule="evenodd"/><path fill="#0097a7" d="m582.25195 209.12717l0 0c0 3.7892303 -3.0717773 6.861023 -6.861023 6.861023l-86.51416 0c-1.8196411 0 -3.5647888 -0.7228546 -4.851471 -2.009552c-1.2866821 -1.2866974 -2.009552 -3.0318146 -2.009552 -4.851471l0 -27.443298c0 -3.7892456 3.0717773 -6.861038 6.861023 -6.861038l86.51416 0c3.7892456 0 6.861023 3.0717926 6.861023 6.861038z" fill-rule="evenodd"/><path fill="#000000" fill-opacity="0.0" d="m118.31233 215.98819c0 27.005173 25.795273 40.50641 51.59056 54.010345c25.795273 13.503937 51.590546 27.01059 51.590546 54.02115" fill-rule="evenodd"/><path stroke="#6d9eeb" stroke-width="2.0" stroke-linejoin="round" stroke-linecap="butt" d="m118.31233 215.98819c0 27.005173 25.795273 40.50641 51.59056 54.010345c12.897629 6.7519836 25.795273 13.504608 35.46849 21.945587c4.836624 4.2204895 8.867126 8.863037 11.688492 14.138672c0.7053375 1.3188782 1.3350983 2.6773682 1.8829956 4.0786743c0.13697815 0.3503418 0.2688446 0.70336914 0.39549255 1.0591125c0.063308716 0.17785645 0.12532043 0.3564148 0.18603516 0.53564453l0.13352966 0.4046631" fill-rule="evenodd"/><path fill="#6d9eeb" stroke="#6d9eeb" stroke-width="2.0" stroke-linecap="butt" d="m216.39334 312.6662l4.652878 8.464081l1.8763123 -9.47467z" fill-rule="evenodd"/><path fill="#000000" fill-opacity="0.0" d="m221.39896 215.98819c0 27.005173 103.456696 40.50641 206.91339 54.010345c103.456696 13.503937 206.91336 27.01059 206.91336 54.02115" fill-rule="evenodd"/><path stroke="#0097a7" stroke-width="2.0" stroke-linejoin="round" stroke-linecap="butt" d="m221.39896 215.98819c0 27.005173 103.456696 40.50641 206.91339 54.010345c51.728333 6.7519836 103.456696 13.504608 142.25296 21.945587c19.398132 4.2204895 35.563232 8.863037 46.878784 14.138672c2.8289185 1.3188782 5.3547363 2.6773682 7.552124 4.0786743c1.0987549 0.7006836 2.1153564 1.4120483 3.046753 2.134552c0.46569824 0.3612671 0.9100952 0.7253113 1.3327637 1.0921631l0.10748291 0.09472656" fill-rule="evenodd"/><path fill="#0097a7" stroke="#0097a7" stroke-width="2.0" stroke-linecap="butt" d="m626.5826 315.06375l7.2439575 6.3886414l-1.442627 -9.5503235z" fill-rule="evenodd"/><path fill="#000000" fill-opacity="0.0" d="m324.4882 215.98819c0 27.005173 -51.543304 40.50641 -103.08661 54.010345c-51.54332 13.503937 -103.08662 27.01059 -103.08662 54.02115" fill-rule="evenodd"/><path stroke="#ffd966" stroke-width="2.0" stroke-linejoin="round" stroke-linecap="butt" d="m324.4882 215.98819c0 27.005173 -51.543304 40.50641 -103.08661 54.010345c-25.771652 6.7519836 -51.54332 13.504608 -70.872055 21.945587c-9.664368 4.2204895 -17.718018 8.863037 -23.35556 14.138672c-1.4093857 1.3188782 -2.6677704 2.6773682 -3.762558 4.0786743c-0.5474014 0.7006836 -1.0539017 1.4120483 -1.5179214 2.134552l-0.14315033 0.22592163" fill-rule="evenodd"/><path fill="#ffd966" stroke="#ffd966" stroke-width="2.0" stroke-linecap="butt" d="m118.58514 311.57623l0.5668564 9.642029l5.763542 -7.7506104z" fill-rule="evenodd"/><path fill="#000000" fill-opacity="0.0" d="m427.8714 215.98819c0 27.005173 -25.795288 40.50641 -51.590546 54.010345c-25.795288 13.503937 -51.590576 27.01059 -51.590576 54.02115" fill-rule="evenodd"/><path stroke="#c27ba0" stroke-width="2.0" stroke-linejoin="round" stroke-linecap="butt" d="m427.8714 215.98819c0 27.005173 -25.795288 40.50641 -51.590546 54.010345c-12.897644 6.7519836 -25.795288 13.504608 -35.468506 21.945587c-4.8366394 4.2204895 -8.867126 8.863037 -11.688507 14.138672c-0.70532227 1.3188782 -1.335083 2.6773682 -1.8829956 4.0786743c-0.13696289 0.3503418 -0.26882935 0.70336914 -0.3954773 1.0591125c-0.063323975 0.17785645 -0.1253357 0.3564148 -0.18603516 0.53564453l-0.13354492 0.4046631" fill-rule="evenodd"/><path fill="#c27ba0" stroke="#c27ba0" stroke-width="2.0" stroke-linecap="butt" d="m323.2612 311.6556l1.8763123 9.47467l4.6528625 -8.464081z" fill-rule="evenodd"/><path fill="#000000" fill-opacity="0.0" d="m738.49603 215.98819c0 27.005173 -51.590515 40.50641 -103.18109 54.010345c-51.590515 13.503937 -103.18109 27.01059 -103.18109 54.02115" fill-rule="evenodd"/><path stroke="#6d9eeb" stroke-width="2.0" stroke-linejoin="round" stroke-linecap="butt" d="m738.49603 215.98819c0 27.005173 -51.590515 40.50641 -103.18109 54.010345c-25.795227 6.7519836 -51.590515 13.504608 -70.93701 21.945587c-9.673218 4.2204895 -17.734253 8.863037 -23.376953 14.138672c-1.4106445 1.3188782 -2.670166 2.6773682 -3.7659912 4.0786743c-0.5479126 0.7006836 -1.0548706 1.4120483 -1.5192871 2.134552l-0.14379883 0.22668457" fill-rule="evenodd"/><path fill="#6d9eeb" stroke="#6d9eeb" stroke-width="2.0" stroke-linecap="butt" d="m532.4069 311.5763l0.56463623 9.642151l5.76532 -7.7492676z" fill-rule="evenodd"/><path fill="#000000" fill-opacity="0.0" d="m841.6772 215.98819c0 27.005173 -25.84253 40.50641 -51.68506 54.010345c-25.84253 13.503937 -51.68506 27.01059 -51.68506 54.02115" fill-rule="evenodd"/><path stroke="#ffd966" stroke-width="2.0" stroke-linejoin="round" stroke-linecap="butt" d="m841.6772 215.98819c0 27.005173 -25.84253 40.50641 -51.68506 54.010345c-12.921265 6.7519836 -25.84253 13.504608 -35.533447 21.945587c-4.84552 4.2204895 -8.883362 8.863037 -11.7099 14.138672c-0.706604 1.3188782 -1.3375244 2.6773682 -1.8864746 4.0786743c-0.13726807 0.3503418 -0.2692871 0.70336914 -0.3961792 1.0591125c-0.06347656 0.17785645 -0.12554932 0.3564148 -0.18634033 0.53564453l-0.1340332 0.40518188" fill-rule="evenodd"/><path fill="#ffd966" stroke="#ffd966" stroke-width="2.0" stroke-linecap="butt" d="m736.88135 311.6552l1.8737183 9.475189l4.6551514 -8.46283z" fill-rule="evenodd"/><path fill="#000000" fill-opacity="0.0" d="m532.13385 215.98819c0 27.005173 -26.070862 40.50641 -52.141724 54.010345c-26.070862 13.503937 -52.141724 27.01059 -52.141724 54.02115" fill-rule="evenodd"/><path stroke="#0097a7" stroke-width="2.0" stroke-linejoin="round" stroke-linecap="butt" d="m532.13385 215.98819c0 27.005173 -26.070862 40.50641 -52.141724 54.010345c-13.035431 6.7519836 -26.070862 13.504608 -35.847443 21.945587c-4.888275 4.2204895 -8.961853 8.863037 -11.8133545 14.138672c-0.7128906 1.3188782 -1.3493652 2.6773682 -1.9031372 4.0786743c-0.13839722 0.3503418 -0.271698 0.70336914 -0.39968872 1.0591125c-0.06402588 0.17785645 -0.12667847 0.3564148 -0.18804932 0.53564453l-0.1359253 0.40756226" fill-rule="evenodd"/><path fill="#0097a7" stroke="#0097a7" stroke-width="2.0" stroke-linecap="butt" d="m426.44073 311.65338l1.8614197 9.4776l4.666168 -8.456757z" fill-rule="evenodd"/><path fill="#000000" fill-opacity="0.0" d="m635.31494 215.98819c0 27.005173 51.590576 40.50641 103.18109 54.010345c51.590576 13.503937 103.18115 27.01059 103.18115 54.02115" fill-rule="evenodd"/><path stroke="#c27ba0" stroke-width="2.0" stroke-linejoin="round" stroke-linecap="butt" d="m635.31494 215.98819c0 27.005173 51.590576 40.50641 103.18109 54.010345c25.795288 6.7519836 51.590576 13.504608 70.93701 21.945587c9.673279 4.2204895 17.734253 8.863037 23.377014 14.138672c1.4106445 1.3188782 2.670166 2.6773682 3.7659912 4.0786743c0.5479126 0.7006836 1.0548706 1.4120483 1.5193481 2.134552l0.14379883 0.22668457" fill-rule="evenodd"/><path fill="#c27ba0" stroke="#c27ba0" stroke-width="2.0" stroke-linecap="butt" d="m835.07416 313.46918l5.76532 7.7492676l0.56463623 -9.642151z" fill-rule="evenodd"/></g></svg>